<?xml version="1.0" standalone="no"?>
<!DOCTYPE svg PUBLIC "-//W3C//DTD SVG 20010904//EN"
 "http://www.w3.org/TR/2001/REC-SVG-20010904/DTD/svg10.dtd">
<svg version="1.0" xmlns="http://www.w3.org/2000/svg"
 width="512.000000pt" height="512.000000pt" viewBox="0 0 512.000000 512.000000"
 preserveAspectRatio="xMidYMid meet">
<metadata>
Created by potrace 1.14, written by Peter Selinger 2001-2017
</metadata>
<g transform="translate(0.000000,512.000000) scale(0.100000,-0.100000)"
fill="#000000" stroke="none">
<path d="M2500 4469 c-26 -8 -122 -97 -387 -362 -194 -193 -353 -354 -353
-357 0 -3 119 -55 263 -115 l263 -111 50 23 c37 18 63 23 106 21 l57 -3 206
319 206 319 -113 114 c-62 63 -127 123 -144 134 -39 24 -107 32 -154 18z"/>
<path d="M2795 3798 l-201 -313 23 -55 22 -55 291 -124 291 -124 34 19 c21 11
36 28 39 44 3 14 24 141 47 284 l41 259 -188 188 c-104 104 -191 189 -194 189
-3 0 -95 -141 -205 -312z"/>
<path d="M1442 3437 c-122 -122 -222 -227 -222 -232 1 -6 108 -165 238 -354
l237 -344 62 0 62 -1 231 357 230 358 -26 45 c-20 33 -27 60 -28 100 l0 54
-251 106 c-137 59 -264 113 -281 120 l-30 13 -222 -222z"/>
<path d="M3486 3599 c-4 -13 -21 -118 -40 -234 l-34 -210 27 -22 c14 -12 30
-22 34 -23 14 0 367 153 367 159 0 4 -78 85 -174 180 -159 159 -175 172 -180
150z"/>
<path d="M2576 3231 c-38 -40 -86 -61 -143 -65 l-47 -2 -228 -354 c-125 -194
-227 -355 -225 -357 2 -1 273 112 603 253 329 141 605 258 612 261 6 3 12 17
12 32 0 25 -14 32 -272 141 -149 63 -274 116 -278 118 -3 1 -19 -11 -34 -27z"/>
<path d="M3733 3087 c-106 -45 -193 -84 -193 -87 0 -7 923 -399 928 -394 16
13 -46 84 -266 307 -141 141 -261 257 -267 256 -5 0 -97 -37 -202 -82z"/>
<path d="M893 2887 c-188 -189 -233 -239 -242 -271 -6 -22 -9 -41 -8 -43 2 -1
187 -41 413 -88 225 -47 426 -90 446 -94 35 -8 39 -6 62 24 l25 32 -163 234
c-89 129 -194 280 -232 336 l-71 102 -230 -232z"/>
<path d="M3450 2854 c-13 -13 -39 -27 -57 -30 -24 -5 -33 -12 -37 -33 -3 -14
-28 -165 -56 -335 l-49 -308 25 -33 c14 -18 29 -48 34 -67 l10 -33 286 -59
285 -59 270 269 c257 255 297 299 286 311 -10 9 -947 403 -959 402 -7 0 -24
-11 -38 -25z"/>
<path d="M2595 2601 c-545 -234 -600 -260 -600 -281 0 -12 7 -27 15 -31 15 -8
937 -199 962 -199 8 0 25 12 39 26 13 15 47 37 74 49 l50 23 53 322 c52 324
54 352 18 349 -6 -1 -281 -117 -611 -258z"/>
<path d="M873 2252 l179 -179 211 90 c117 49 216 93 221 97 5 5 -2 11 -15 15
-66 15 -752 155 -762 155 -6 0 68 -80 166 -178z"/>
<path d="M1952 2158 c-7 -10 107 -182 430 -648 241 -349 445 -641 451 -648 10
-10 21 -3 53 30 l41 43 74 454 c52 324 70 456 62 458 -28 10 -63 46 -79 82
l-17 38 -496 102 c-273 56 -499 101 -502 101 -4 0 -11 -6 -17 -12z"/>
<path d="M1345 2068 c-104 -45 -192 -83 -194 -85 -3 -2 40 -48 94 -103 77 -78
102 -97 111 -87 6 6 57 84 113 171 95 148 111 186 79 186 -7 0 -98 -37 -203
-82z"/>
<path d="M1561 1885 c-60 -94 -112 -177 -116 -185 -3 -10 156 -176 507 -527
461 -460 517 -513 557 -523 76 -20 141 3 210 74 l33 35 -446 648 -447 648 -94
0 -94 0 -110 -170z"/>
<path d="M3258 1876 c-16 -14 -35 -29 -43 -33 -11 -6 -31 -109 -75 -377 -33
-203 -59 -370 -57 -372 1 -2 162 155 355 349 l353 353 -233 47 c-128 26 -242
50 -253 52 -12 3 -31 -5 -47 -19z"/>
</g>
</svg>
